<svg width="26" height="27" viewBox="0 0 26 27" fill="none" xmlns="http://www.w3.org/2000/svg">
<path d="M12.9958 0.42857C5.8976 0.42857 0.138672 6.1875 0.138672 13.2857C0.138672 20.3839 5.8976 26.1429 12.9958 26.1429C20.094 26.1429 25.853 20.3839 25.853 13.2857C25.853 6.1875 20.094 0.42857 12.9958 0.42857ZM19.4244 14.2065L10.3172 19.5636C10.1498 19.6641 9.96568 19.7143 9.78153 19.7143C9.59738 19.7143 9.41323 19.6641 9.24581 19.5804C8.91099 19.3795 8.7101 19.0279 8.7101 18.6429V7.92857C8.7101 7.54353 8.91099 7.19196 9.24581 6.99107C9.58064 6.80692 9.99916 6.80692 10.3172 7.00781L19.4244 12.365C19.7592 12.5491 19.9601 12.9007 19.9601 13.2857C19.9601 13.6708 19.7592 14.0223 19.4244 14.2065Z" fill="white"/>
</svg>
