<svg width="24" height="24" viewBox="0 0 24 24" fill="none" xmlns="http://www.w3.org/2000/svg">
<path fill-rule="evenodd" clip-rule="evenodd" d="M2.22595 4.22595C2.5307 3.9212 2.94402 3.75 3.375 3.75H14.9393L19.25 8.06066V9.96747L20.75 8.48035V7.75C20.75 7.55109 20.671 7.36032 20.5303 7.21967L15.7803 2.46967C15.6397 2.32902 15.4489 2.25 15.25 2.25H3.375C2.5462 2.25 1.75134 2.57924 1.16529 3.16529C0.57924 3.75134 0.25 4.5462 0.25 5.375V19.625C0.25 20.4538 0.57924 21.2487 1.16529 21.8347C1.75134 22.4208 2.5462 22.75 3.375 22.75H17.625C18.4538 22.75 19.2487 22.4208 19.8347 21.8347C20.4208 21.2487 20.75 20.4538 20.75 19.625V16.2218L19.25 17.7089V19.625C19.25 20.056 19.0788 20.4693 18.774 20.774C18.4693 21.0788 18.056 21.25 17.625 21.25H3.375C2.94402 21.25 2.5307 21.0788 2.22595 20.774C1.9212 20.4693 1.75 20.056 1.75 19.625V5.375C1.75 4.94402 1.9212 4.5307 2.22595 4.22595Z" fill="#0F0F0F"/>
<path d="M10.5 18C11.8807 18 13 16.8807 13 15.5C13 14.1193 11.8807 13 10.5 13C9.11929 13 8 14.1193 8 15.5C8 16.8807 9.11929 18 10.5 18Z" stroke="#0F0F0F" stroke-width="1.5" stroke-linecap="round" stroke-linejoin="round"/>
<path d="M13 3V8H6V3" stroke="#0F0F0F" stroke-width="1.5" stroke-linecap="round" stroke-linejoin="round"/>
<path d="M15.8333 17.1666H17.6667L22.4792 12.3541C22.7223 12.111 22.8589 11.7813 22.8589 11.4375C22.8589 11.0936 22.7223 10.7639 22.4792 10.5208C22.2361 10.2777 21.9063 10.1411 21.5625 10.1411C21.2187 10.1411 20.889 10.2777 20.6458 10.5208L15.8333 15.3333V17.1666Z" stroke="#0F0F0F" stroke-width="1.5" stroke-linecap="round" stroke-linejoin="round"/>
<path d="M20.1875 10.9792L22.0208 12.8125" stroke="#0F0F0F" stroke-width="1.5" stroke-linecap="round" stroke-linejoin="round"/>
</svg>
