<svg width="24" height="24" viewBox="0 0 24 24" fill="none" xmlns="http://www.w3.org/2000/svg">
<path d="M14.3057 3.54175V7.81953C14.3057 8.10316 14.4183 8.37518 14.6189 8.57574C14.8195 8.7763 15.0915 8.88897 15.3751 8.88897H19.6529" stroke="#0F0F0F" stroke-width="1.5" stroke-linecap="round" stroke-linejoin="round"/>
<path d="M17.514 22.7917H6.81955C6.25228 22.7917 5.70825 22.5664 5.30713 22.1653C4.90601 21.7642 4.68066 21.2201 4.68066 20.6529V5.68064C4.68066 5.11337 4.90601 4.56933 5.30713 4.16821C5.70825 3.76709 6.25228 3.54175 6.81955 3.54175H14.3057L19.6529 8.88897V20.6529C19.6529 21.2201 19.4275 21.7642 19.0264 22.1653C18.6253 22.5664 18.0813 22.7917 17.514 22.7917Z" stroke="#0F0F0F" stroke-width="1.5" stroke-linecap="round" stroke-linejoin="round"/>
<path fill-rule="evenodd" clip-rule="evenodd" d="M3.09702 3.34722C3.09702 2.58015 3.71884 1.95833 4.4859 1.95833H15.1803C15.9474 1.95833 16.5692 2.58016 16.5692 3.34722V3.56967L18.0692 5.06968V3.34722C18.0692 1.75173 16.7758 0.458328 15.1803 0.458328H4.4859C2.89041 0.458328 1.59702 1.75173 1.59702 3.34722V18.3194C1.59702 19.4751 2.27563 20.4723 3.25611 20.9342L3.27336 18.9973C3.16105 18.7968 3.09702 18.5656 3.09702 18.3194V3.34722Z" fill="#0F0F0F"/>
<path d="M8.08331 9.95831H11.875" stroke="#0F0F0F" stroke-width="1.5" stroke-linecap="round" stroke-linejoin="round"/>
<path d="M8.08331 14.3333H16.25" stroke="#0F0F0F" stroke-width="1.5" stroke-linecap="round" stroke-linejoin="round"/>
<path d="M8.08331 18.4167H16.25" stroke="#0F0F0F" stroke-width="1.5" stroke-linecap="round" stroke-linejoin="round"/>
</svg>
