<svg width="24" height="24" viewBox="0 0 24 24" fill="none" xmlns="http://www.w3.org/2000/svg">
<g clip-path="url(#clip0)">
<path d="M4.24992 2.66675H16.3333L21.1666 7.33341V19.0001C21.1666 19.6189 20.912 20.2124 20.4588 20.65C20.0055 21.0876 19.3909 21.3334 18.7499 21.3334H4.24992C3.60898 21.3334 2.99429 21.0876 2.54108 20.65C2.08786 20.2124 1.83325 19.6189 1.83325 19.0001V5.00008C1.83325 4.38124 2.08786 3.78775 2.54108 3.35017C2.99429 2.91258 3.60898 2.66675 4.24992 2.66675" stroke="#0F0F0F" stroke-width="1.5" stroke-linecap="round" stroke-linejoin="round"/>
<path d="M11.4999 16.6667C12.8346 16.6667 13.9166 15.622 13.9166 14.3333C13.9166 13.0447 12.8346 12 11.4999 12C10.1652 12 9.08325 13.0447 9.08325 14.3333C9.08325 15.622 10.1652 16.6667 11.4999 16.6667Z" stroke="#0F0F0F" stroke-width="1.5" stroke-linecap="round" stroke-linejoin="round"/>
<path d="M13.9167 2.66675V7.33342H6.66675V2.66675" stroke="#0F0F0F" stroke-width="1.5" stroke-linecap="round" stroke-linejoin="round"/>
</g>
<defs>
<clipPath id="clip0">
<rect width="24" height="24" fill="white"/>
</clipPath>
</defs>
</svg>
