<svg width="24" height="24" viewBox="0 0 24 24" fill="none" xmlns="http://www.w3.org/2000/svg">
<path d="M13.9285 1V5.88889C13.9285 6.21304 14.0564 6.52392 14.2841 6.75313C14.5118 6.98234 14.8207 7.11111 15.1428 7.11111H19.9999" stroke="#0F0F0F" stroke-width="1.5" stroke-linecap="round" stroke-linejoin="round"/>
<path d="M17.5714 23H5.42857C4.78447 23 4.16676 22.7425 3.71131 22.284C3.25587 21.8256 3 21.2039 3 20.5556V3.44444C3 2.79614 3.25587 2.17438 3.71131 1.71596C4.16676 1.25754 4.78447 1 5.42857 1H13.9286L20 7.11111V20.5556C20 21.2039 19.7441 21.8256 19.2887 22.284C18.8332 22.7425 18.2155 23 17.5714 23Z" stroke="#0F0F0F" stroke-width="1.5" stroke-linecap="round" stroke-linejoin="round"/>
<path d="M6.86353 8.66675H10.8376" stroke="#0F0F0F" stroke-width="1.5" stroke-linecap="round" stroke-linejoin="round"/>
<path d="M6.86353 13.3333H16.1363" stroke="#0F0F0F" stroke-width="1.5" stroke-linecap="round" stroke-linejoin="round"/>
<path d="M6.86353 18H16.1363" stroke="#0F0F0F" stroke-width="1.5" stroke-linecap="round" stroke-linejoin="round"/>
</svg>
