<svg width="24" height="24" viewBox="0 0 24 24" fill="none" xmlns="http://www.w3.org/2000/svg">
<path d="M19.5 3H4.5C3.11929 3 2 3.44772 2 4V5C2 5.55228 3.11929 6 4.5 6H19.5C20.8807 6 22 5.55228 22 5V4C22 3.44772 20.8807 3 19.5 3Z" stroke="#0F0F0F" stroke-width="1.5" stroke-linecap="round" stroke-linejoin="round"/>
<path d="M19.5 10.5H4.5C3.11929 10.5 2 10.9477 2 11.5V12.5C2 13.0523 3.11929 13.5 4.5 13.5H19.5C20.8807 13.5 22 13.0523 22 12.5V11.5C22 10.9477 20.8807 10.5 19.5 10.5Z" stroke="#0F0F0F" stroke-width="1.5" stroke-linecap="round" stroke-linejoin="round"/>
<path d="M19.5 18H4.5C3.11929 18 2 18.4477 2 19V20C2 20.5523 3.11929 21 4.5 21H19.5C20.8807 21 22 20.5523 22 20V19C22 18.4477 20.8807 18 19.5 18Z" stroke="#0F0F0F" stroke-width="1.5" stroke-linecap="round" stroke-linejoin="round"/>
</svg>
