<svg width="24" height="24" viewBox="0 0 24 24" fill="none" xmlns="http://www.w3.org/2000/svg">
<path d="M15.875 5.75H15.8862" stroke="#0F0F0F" stroke-width="1.5" stroke-linecap="round" stroke-linejoin="round"/>
<path d="M19.25 1.375H5.75C3.88604 1.375 2.375 3.33375 2.375 5.75V17.4167C2.375 19.8329 3.88604 21.7917 5.75 21.7917H19.25C21.114 21.7917 22.625 19.8329 22.625 17.4167V5.75C22.625 3.33375 21.114 1.375 19.25 1.375Z" stroke="#0F0F0F" stroke-width="1.5" stroke-linecap="round" stroke-linejoin="round"/>
<path d="M2.375 15.9584L6.875 10.1251C7.38807 9.48511 7.97006 9.14819 8.5625 9.14819C9.15494 9.14819 9.73694 9.48511 10.25 10.1251L14.75 15.9584" stroke="#0F0F0F" stroke-width="1.5" stroke-linecap="round" stroke-linejoin="round"/>
<path d="M13.625 14.5L15.875 11.5833C16.3881 10.9434 16.9701 10.6064 17.5625 10.6064C18.1549 10.6064 18.7369 10.9434 19.25 11.5833L22.625 15.9583" stroke="#0F0F0F" stroke-width="1.5" stroke-linecap="round" stroke-linejoin="round"/>
</svg>
